<?xml version="1.0" encoding="utf-8"?>
<!-- Generator: Fusion 360, Shaper Origin Export Add-In, Version 1.7.0  -->
<svg xmlns="http://www.w3.org/2000/svg" xmlns:xlink="http://www.w3.org/1999/xlink" xmlns:shaper="http://www.shapertools.com/namespaces/shaper" shaper:fusionaddin="version:1.7.0" width="8.2667743cm" height="8.9171057cm" version="1.1" x="0cm" y="0cm" viewBox="0 0 8.2667743 8.9171057" enable-background="new 0 0 8.2667743 8.9171057" xml:space="preserve"><path d="M3.6703664,-4.2024071 L3.6703664,-4.2024071 3.6438824,-4.2241596 3.6168886,-4.2448363 3.5893437,-4.2644405 3.5612063,-4.2829754 3.5324354,-4.3004443 3.5029896,-4.3168504 3.4728276,-4.3321969 3.4419082,-4.346487 3.4101903,-4.3597241 3.3776324,-4.3719113 3.3441933,-4.3830518 3.3098319,-4.393149 3.2745068,-4.402206 3.2381768,-4.4102261 3.2008006,-4.4172125 3.162337,-4.4231684 3.1227447,-4.4280972 3.0819825,-4.4320019 3.0400091,-4.434886 2.9968757,-4.4367032 2.9525446,-4.4374049 2.9070333,-4.4369963 2.8603631,-4.4354823 2.8125552,-4.4328681 2.7636312,-4.4291585 2.7136124,-4.4243585 2.66252,-4.4184733 2.6103755,-4.4115078 2.5572002,-4.403467 2.5030154,-4.3943559 2.4478426,-4.3841796 2.3917031,-4.372943 2.3346181,-4.3606512 2.2766092,-4.3473091 2.2176976,-4.3329218 2.1579047,-4.3174944 2.0972518,-4.3010317 2.0357603,-4.2835388 1.9734516,-4.2650207 1.910347,-4.2454825 1.8464785,-4.2249347 1.7818948,-4.2034008 1.7166296,-4.1808988 1.6507164,-4.1574466 1.5841884,-4.1330622 1.517079,-4.1077633 1.4494216,-4.0815678 1.3812494,-4.0544937 1.312596,-4.0265587 1.2434945,-3.9977809 1.1739784,-3.9681779 1.1040809,-3.9377677 1.0338355,-3.9065682 0.9632755,-3.8745973 0.8924343,-3.8418727 0.8213451,-3.8084125 0.7500413,-3.7742344 0.6785564,-3.7393564 0.6069236,-3.7037962 0.5351762,-3.6675719 0.4633477,-3.6307011 0.3914714,-3.5932019 0.2477086,-3.5163896 0.1041547,-3.4372778 -0.0389234,-3.3560095 -0.1812591,-3.272728 -0.3225628,-3.1876241 -0.4626303,-3.1008839 -0.6013063,-3.012664 -0.7384352,-2.9231207 -0.8738618,-2.8324105 -1.0074308,-2.7406897 -1.1389866,-2.6481149 -1.268374,-2.5548424 -1.332206,-2.5079933 -1.3954376,-2.4610286 -1.4580494,-2.4139676 -1.520022,-2.3668299 -1.581336,-2.3196351 -1.6419719,-2.2724028 -1.7019103,-2.2251525 -1.7611318,-2.1779037 -1.819617,-2.130676 -1.8773465,-2.083489 -1.9343007,-2.0363622 -1.9904738,-1.989311 -2.0458623,-1.9423677 -2.1004533,-1.8955466 -2.1542383,-1.8488552 -2.2072092,-1.8023009 -2.2593578,-1.7558912 -2.3106756,-1.7096336 -2.3611545,-1.6635355 -2.4107862,-1.6176043 -2.4595624,-1.5718476 -2.5074748,-1.5262728 -2.5545152,-1.4808874 -2.6006754,-1.4356988 -2.6459469,-1.3907144 -2.6903217,-1.3459418 -2.7337913,-1.3013883 -2.7763476,-1.2570616 -2.8179822,-1.2129689 -2.858687,-1.1691178 -2.8984535,-1.1255158 -2.9372736,-1.0821703 -2.9751391,-1.0390887 -3.0120415,-0.9962785 -3.0479726,-0.9537472 -3.0829243,-0.9115022 -3.1168881,-0.8695511 -3.1498511,-0.827906 -3.1817993,-0.7865726 -3.2127338,-0.745534 -3.2426563,-0.7047731 -3.2715682,-0.6642726 -3.2994713,-0.6240154 -3.3263672,-0.5839841 -3.3522573,-0.5441616 -3.3771433,-0.5045307 -3.4010269,-0.4650741 -3.4239095,-0.4257747 -3.4457928,-0.3866152 -3.4666785,-0.3475784 -3.486568,-0.308647 -3.5054629,-0.269804 -3.523365,-0.2310319 -3.5402757,-0.1923137 -3.5561967,-0.1536322 -3.5711295,-0.11497 -3.5850758,-0.07631 -3.5980371,-0.037635 -3.610015,0.0010723 -3.6210112,0.0398291 -3.6310279,0.0786559 -3.6400855,0.1176529 -3.6481929,0.1568653 -3.6553509,0.196304 -3.6615604,0.2359797 -3.6668222,0.2759032 -3.6711374,0.3160853 -3.6745066,0.3565366 -3.6769308,0.3972679 -3.6784109,0.43829 -3.6789478,0.4796137 -3.6785422,0.5212497 -3.6771952,0.5632088 -3.6749075,0.6055016 -3.67168,0.648139 -3.6675136,0.6911318 -3.6624093,0.7344906 -3.6563678,0.7782263 -3.64939,0.8223495 -3.641477,0.8668579 -3.6326276,0.9116988 -3.6228499,0.9568405 -3.6121548,1.0022515 -3.6005532,1.0479003 -3.588056,1.0937554 -3.5746741,1.1397851 -3.5604184,1.185958 -3.5452997,1.2322425 -3.5293289,1.278607 -3.512517,1.3250201 -3.4948748,1.3714502 -3.4764132,1.4178658 -3.4571431,1.4642353 -3.4370753,1.5105272 -3.4162209,1.5567099 -3.3945906,1.6027519 -3.3721954,1.6486216 -3.3490461,1.6942876 -3.3251537,1.7397183 -3.300529,1.7848822 -3.2751829,1.8297476 -3.2491405,1.8742549 -3.2224226,1.9183574 -3.1950304,1.9620574 -3.1669656,2.005356 -3.1382298,2.0482548 -3.1088247,2.0907551 -3.078752,2.1328584 -3.0480134,2.1745661 -3.0166104,2.2158795 -2.9845448,2.2568 -2.9518183,2.2973291 -2.9184325,2.3374682 -2.8843891,2.3772187 -2.8496898,2.4165819 -2.8143362,2.4555594 -2.7783301,2.4941524 -2.741673,2.5323624 -2.7043317,2.5702382 -2.6662463,2.6079058 -2.6274376,2.6453712 -2.5879216,2.6826395 -2.5477139,2.7197157 -2.5068305,2.7566047 -2.4652871,2.7933117 -2.4230997,2.8298416 -2.3802839,2.8661994 -2.3368557,2.9023902 -2.2928308,2.938419 -2.2482251,2.9742908 -2.1573344,3.0455834 -2.0643104,3.1163082 -1.9693441,3.1864386 -1.872852,3.2556513 -1.7751038,3.3237313 -1.6763535,3.3904832 -1.5768552,3.4557115 -1.4768627,3.5192205 -1.37663,3.5808146 -1.2764112,3.6402984 -1.2263864,3.6691879 -1.1764602,3.6974763 -1.1266645,3.7251395 -1.077042,3.7521447 -1.0276424,3.7784413 -0.9784538,3.8040344 -0.9294675,3.8289326 -0.880675,3.8531448 -0.8320676,3.8766797 -0.7836366,3.8995462 -0.7353734,3.921753 -0.6872694,3.9433089 -0.6393159,3.9642227 -0.5915044,3.9845032 -0.5438261,4.0041592 -0.4962725,4.0231994 -0.4488349,4.0416327 -0.4015046,4.0594679 -0.3071317,4.0933788 -0.2128471,4.1251654 -0.118391,4.1551254 -0.0237293,4.1833503 0.0711823,4.2099326 0.1663882,4.2349646 0.2619328,4.2585388 0.3578606,4.2807476 0.4542159,4.3016832 0.551043,4.3214383 0.6483865,4.3401051 0.7462906,4.357776 0.8447624,4.3745414 0.943636,4.3903768 1.0427932,4.4052001 1.1421202,4.4189293 1.241503,4.4314822 1.3408273,4.442777 1.4399794,4.4527315 1.538845,4.4612638 1.6373102,4.4682919 1.735261,4.4737337 1.8325834,4.4775072 1.9290534,4.4794868 1.9768634,4.4797008 2.0243807,4.4793684 2.07159,4.4784739 2.1184761,4.4770015 2.1650236,4.4749357 2.2112173,4.4722605 2.2570419,4.4689604 2.3024822,4.4650195 2.3475229,4.4604221 2.3921486,4.4551526 2.4363443,4.4491951 2.4800945,4.442534 2.523384,4.4351534 2.5661975,4.4270378 2.6085198,4.4181713 2.6503356,4.4085383 2.6916297,4.3981229 2.7323867,4.3869096 2.7725914,4.3748824 2.8122285,4.3620258 2.8512827,4.3483239 2.8897389,4.3337611 2.927585,4.3183207 2.9648727,4.3019724 3.0016215,4.2847135 3.0378346,4.2665482 3.0735153,4.2474811 3.1086668,4.2275165 3.1432927,4.206659 3.177396,4.1849128 3.2109802,4.1622825 3.2440485,4.1387724 3.2766043,4.114387 3.3086508,4.0891306 3.3401913,4.0630078 3.3712293,4.0360229 3.4017679,4.0081804 3.4318104,3.9794846 3.4613603,3.9499401 3.4904207,3.9195511 3.5189951,3.8883222 3.5470866,3.8562578 3.5746986,3.8233622 3.6018349,3.7896395 3.628521,3.7550919 3.6547324,3.7197988 3.680473,3.6837854 3.7057468,3.6470769 3.7305577,3.6096987 3.7549094,3.571676 3.7788061,3.5330342 3.8022515,3.4937985 3.8252495,3.4539942 3.8478042,3.4136465 3.8699193,3.3727808 3.8915988,3.3314223 3.9128466,3.2895964 3.9336666,3.2473282 3.9740388,3.1615664 4.0127466,3.0743392 4.0498214,2.9858487 4.0852944,2.8962974 4.1191973,2.8058865 4.1515629,2.7148501 4.1824095,2.6232911 4.2117633,2.5311971 4.2396507,2.4385557 4.2660978,2.3453548 4.2911311,2.2515821 4.3147767,2.1572251 4.3370609,2.0622716 4.35801,1.9667094 4.3776504,1.8705261 4.3960082,1.7737094 4.4131072,1.6762492 4.4289589,1.5779764 4.4436248,1.4786834 4.4571755,1.3782362 4.4696816,1.2765008 4.4812136,1.1733434 4.4918423,1.0686299 4.5016383,0.9622265 4.5106721,0.8539992 4.5190144,0.7438139 4.5267543,0.6314996 4.5340305,0.5170427 4.5408614,0.4007497 4.5472498,0.2829244 4.5531982,0.1638707 4.5587094,0.0438924 4.5684308,-0.1976226 4.5764354,-0.4391896 4.5798005,-0.5592331 4.5827139,-0.6782029 4.5850692,-0.7956269 4.5867702,-0.9113828 4.5877212,-1.0253521 4.5878265,-1.1374164 4.5869906,-1.2474569 4.5861898,-1.3016813 4.5851177,-1.3553553 4.5837625,-1.4084641 4.5821123,-1.460993 4.5778311,-1.564434 4.5720863,-1.6662963 4.5647896,-1.7669125 4.5558557,-1.8665937 4.5451992,-1.965651 4.5327347,-2.0643955 4.518377,-2.1631384 4.5020407,-2.2621906 4.4836431,-2.3618657 4.4632103,-2.4621988 4.4408231,-2.5629002 4.4165456,-2.6637 4.3904416,-2.7643283 4.362575,-2.8645151 4.3330098,-2.9639905 4.3018099,-3.0624844 4.2690393,-3.159727 4.2347617,-3.2554483 4.2170778,-3.3026541 4.1990469,-3.3493571 4.1806947,-3.3954362 4.1620235,-3.4408473 4.143034,-3.4855553 4.1237265,-3.5295246 4.1041017,-3.5727199 4.0841601,-3.6151059 4.0639021,-3.6566471 4.0433284,-3.6973083 4.0224394,-3.737054 4.0012357,-3.7758489 3.9797178,-3.8136577 3.9578861,-3.8504449 3.9357414,-3.8861752 3.9132839,-3.9208132 3.8905144,-3.9543236 3.8674333,-3.986671 3.8440411,-4.01782 3.8203355,-4.0477397 3.7962891,-4.0764611 3.7718882,-4.1039967 3.747114,-4.1303529 3.721948,-4.1555358 3.6963717,-4.1795518 3.6703664,-4.2024071z" transform="matrix(1,0,0,-1,3.6789478,4.4797008)" fill="rgb(0,0,0)" stroke-linecap="round" stroke-linejoin="round" /><path d="M1.1735019,-1.7071479 A0.4,0.4 180 0,0 1.9735019,-1.7071479 L1.9735019,-2.3071479 1.1735019,-2.3071479 1.1735019,-1.7071479z" transform="matrix(1,0,0,-1,3.6789478,4.4797008)" fill="rgb(255,255,255)" stroke="rgb(0,0,0)" stroke-width="0.0010cm" stroke-linecap="round" stroke-linejoin="round" /></svg>