0
SECTION
2
HEADER
9
$INSUNITS
70
4
9
$ACADVER
1
AC1014
9
$HANDSEED
5
FFFF
0
ENDSEC
0
SECTION
2
TABLES
0
TABLE
2
VPORT
5
8
100
AcDbSymbolTable
0
ENDTAB
0
TABLE
2
LTYPE
5
5
100
AcDbSymbolTable
0
LTYPE
5
14
100
AcDbSymbolTableRecord
100
AcDbLinetypeTableRecord
2
BYBLOCK
70
0
0
LTYPE
5
15
100
AcDbSymbolTableRecord
100
AcDbLinetypeTableRecord
2
BYLAYER
70
0
0
ENDTAB
0
TABLE
2
LAYER
5
2
100
AcDbSymbolTable
70
2
0
LAYER
5
50
100
AcDbSymbolTableRecord
100
AcDbLayerTableRecord
2
0
70
0
6
CONTINUOUS
0
ENDTAB
0
TABLE
2
STYLE
5
3
100
AcDbSymbolTable
70
1
0
STYLE
5
11
100
AcDbSymbolTableRecord
100
AcDbTextStyleTableRecord
2
STANDARD
70
0
0
ENDTAB
0
TABLE
2
VIEW
5
6
100
AcDbSymbolTable
70
0
0
ENDTAB
0
TABLE
2
UCS
5
7
100
AcDbSymbolTable
70
0
0
ENDTAB
0
TABLE
2
APPID
5
9
100
AcDbSymbolTable
70
2
0
APPID
5
12
100
AcDbSymbolTableRecord
100
AcDbRegAppTableRecord
2
ACAD
70
0
0
ENDTAB
0
TABLE
2
DIMSTYLE
5
A
100
AcDbSymbolTable
70
1
0
ENDTAB
0
TABLE
2
BLOCK_RECORD
5
1
100
AcDbSymbolTable
70
1
0
BLOCK_RECORD
5
1F
100
AcDbSymbolTableRecord
100
AcDbBlockTableRecord
2
*MODEL_SPACE
0
BLOCK_RECORD
5
1B
100
AcDbSymbolTableRecord
100
AcDbBlockTableRecord
2
*PAPER_SPACE
0
ENDTAB
0
ENDSEC
0
SECTION
2
BLOCKS
0
BLOCK
5
20
100
AcDbEntity
100
AcDbBlockBegin
2
*MODEL_SPACE
0
ENDBLK
5
21
100
AcDbEntity
100
AcDbBlockEnd
0
BLOCK
5
1C
100
AcDbEntity
100
AcDbBlockBegin
2
*PAPER_SPACE
0
ENDBLK
5
1D
100
AcDbEntity
100
AcDbBlockEnd
0
ENDSEC
0
SECTION
2
ENTITIES
0
SPLINE
5
100
100
AcDbEntity
8
0
100
AcDbSpline
70
0
71
3
72
80
73
76
74
0
42
0.000000001
43
0.0000000001
44
0.0000000001
40
0.68000000000000238
40
0.68000000000000238
40
0.68000000000000238
40
0.68000000000000238
40
0.7172176310811943
40
0.7172176310811943
40
0.7172176310811943
40
0.75855779622455111
40
0.75855779622455111
40
0.75855779622455111
40
0.81621970359057039
40
0.81621970359057039
40
0.81621970359057039
40
0.87020597211615991
40
0.87020597211615991
40
0.87020597211615991
40
0.92081809885890009
40
0.92081809885890009
40
0.92081809885890009
40
0.96647048118494217
40
0.96647048118494217
40
0.96647048118494217
40
1.0032944176128771
40
1.0032944176128771
40
1.0032944176128771
40
1.0455885165120724
40
1.0455885165120724
40
1.0455885165120724
40
1.0792767150417135
40
1.0792767150417135
40
1.0792767150417135
40
1.1114277785131872
40
1.1114277785131872
40
1.1114277785131872
40
1.1479777671159235
40
1.1479777671159235
40
1.1479777671159235
40
1.180615022371341
40
1.180615022371341
40
1.180615022371341
40
1.223425576890919
40
1.223425576890919
40
1.223425576890919
40
1.2676783619242256
40
1.2676783619242256
40
1.2676783619242256
40
1.313793150141058
40
1.313793150141058
40
1.313793150141058
40
1.3557540099795096
40
1.3557540099795096
40
1.3557540099795096
40
1.4023658458481942
40
1.4023658458481942
40
1.4023658458481942
40
1.448560968592713
40
1.448560968592713
40
1.448560968592713
40
1.4865941980580568
40
1.4865941980580568
40
1.4865941980580568
40
1.5282737955795653
40
1.5282737955795653
40
1.5282737955795653
40
1.5596232975837427
40
1.5596232975837427
40
1.5596232975837427
40
1.5928848651063576
40
1.5928848651063576
40
1.5928848651063576
40
1.6320632086817775
40
1.6320632086817775
40
1.6320632086817775
40
1.6679063873676272
40
1.6679063873676272
40
1.6679063873676272
40
1.6800000000000024
40
1.6800000000000024
40
1.6800000000000024
40
1.6800000000000024
10
36.703664076104552
20
-42.024070847690638
30
7.9398321251034076e-10
10
35.036772208886475
20
-43.439980139101529
30
7.9398331659374932e-10
10
33.086286335873382
20
-44.202903760275909
30
7.9398296964905413e-10
10
30.376464330785993
20
-44.350160341337627
30
7.9398262270435893e-10
10
27.371626199142636
20
-44.513448627091805
30
7.9398227575966374e-10
10
23.454502029946109
20
-43.840385175227368
30
7.9398179003709046e-10
10
18.962579147221145
20
-42.410154112831513
30
7.9398120023110863e-10
10
12.697291790791336
20
-40.415282690068814
30
7.9398029817490112e-10
10
5.3559442264002985
20
-36.967988681316314
30
7.9397922264634602e-10
10
-1.6312558673657727
20
-32.83474696108415
30
7.9397804303438235e-10
10
-8.1732685342725393
20
-28.96485353792729
30
7.9397700220029677e-10
10
-14.377518731183233
20
-24.517932822687523
30
7.9397596136621118e-10
10
-19.560431018693741
20
-20.182170188423598
30
7.9397502461553415e-10
10
-24.420757154276295
20
-16.116266835249689
30
7.9397412255932664e-10
10
-28.403372806785189
20
-12.173663613863212
30
7.9397335928099722e-10
10
-31.268458592766216
20
-8.5707138546504105
30
7.9397273478054586e-10
10
-33.852670471429448
20
-5.3209732669365799
30
7.9397214497456403e-10
10
-35.511400728846809
20
-2.3663999347606821
30
7.9397176333539932e-10
10
-36.278586126172236
20
0.65944448213360185
30
7.939713816962346e-10
10
-36.89725675883831
20
3.0995340436336831
30
7.9397106944600893e-10
10
-36.952270434081875
20
5.658842822826033
30
7.9397082658472229e-10
10
-36.453382820512779
20
8.4575057469583257
30
7.9397065311237469e-10
10
-35.880551298494922
20
11.670979681451158
30
7.9397041025108805e-10
10
-34.569697470652457
20
15.155891733790055
30
7.939703061676795e-10
10
-32.705106940480135
20
18.378482188528192
30
7.9397023677874046e-10
10
-31.220242410315606
20
20.944788401101956
30
7.9397020208427094e-10
10
-29.399519661181685
20
23.31016836659861
30
7.9397020208427094e-10
10
-27.257227152580942
20
25.486630900140831
30
7.9397023677874046e-10
10
-25.210837374884278
20
27.565661033654067
30
7.939703061676795e-10
10
-22.826595219448492
20
29.549832838222937
30
7.9397037555661854e-10
10
-20.222134145388665
20
31.476446253544758
30
7.9397051433449661e-10
10
-17.262169323581638
20
33.666038561670419
30
7.9397065311237469e-10
10
-14.061320018966839
20
35.734725499154166
30
7.9397082658472229e-10
10
-10.966338391689582
20
37.415513926773507
30
7.9397106944600893e-10
10
-8.2038257022842629
20
38.915748796855368
30
7.9397124291835652e-10
10
-5.5451103704539264
20
40.082823043034487
30
7.9397145108517364e-10
10
-2.9230460227852371
20
40.985077352932549
30
7.9397165925199076e-10
10
0.51999506398214379
20
42.169830374899398
30
7.9397193680774691e-10
10
3.9878097262606511
20
42.973170220870131
30
7.9397224905797259e-10
10
7.5777892362205463
20
43.597818136694229
30
7.9397259600266779e-10
10
11.289753211388421
20
44.243691059999207
30
7.9397294294736298e-10
10
15.108338656829758
20
44.706096591957134
30
7.9397339397546673e-10
10
18.75723712274527
20
44.786299859474241
30
7.9397377561463145e-10
10
22.554600350279038
20
44.86976640195067
30
7.9397419194826568e-10
10
26.109900949466311
20
44.476417126166552
30
7.9397460828189992e-10
10
29.088170767152292
20
43.261196494311768
30
7.9397509400447319e-10
10
31.7972128649726
20
42.155828595713423
30
7.9397547564363791e-10
10
34.087806997804215
20
40.344792655754624
30
7.9397596136621118e-10
10
36.014592952846705
20
37.90115938043914
30
7.939763430053759e-10
10
38.15701045748731
20
35.184052848570786
30
7.9397682872794917e-10
10
39.845080797442733
20
31.734868022606634
30
7.9397734914499196e-10
10
41.16729690929138
20
28.126338751073028
30
7.9397780017309572e-10
10
42.477961275527072
20
24.549335953773216
30
7.9397821650672995e-10
10
43.427976696621457
20
20.853579742156882
30
7.9397863284036418e-10
10
44.089776452936505
20
17.005168117814634
30
7.9397904917399842e-10
10
44.634452505464502
20
13.837838979283328
30
7.9397936142422409e-10
10
44.977836377634958
20
10.535735401542896
30
7.9397970836891929e-10
10
45.228565571659949
20
6.8927948506487446
30
7.9398002061914497e-10
10
45.503471301388558
20
2.8985841469615292
30
7.9398040225830968e-10
10
45.693126676474506
20
-1.531194006152035
30
7.9398081859194392e-10
10
45.80293852210734
20
-5.7813651335292713
30
7.9398116553663911e-10
10
45.885521531423741
20
-8.9776680440735852
30
7.9398144309239527e-10
10
45.916777529730702
20
-12.01835318727165
30
7.939816859536819e-10
10
45.814299636124488
20
-14.801292966431017
30
7.9398189412049902e-10
10
45.705639157066635
20
-17.752130058717476
30
7.9398213698178566e-10
10
45.428176154516578
20
-20.484094858267021
30
7.9398234514860277e-10
10
44.894101033386782
20
-23.317307137815348
30
7.9398255331541989e-10
10
44.264805864319811
20
-26.655651745010999
30
7.9398272678776749e-10
10
43.293910340532086
20
-30.114657635652705
30
7.9398293495458461e-10
10
42.088898521786895
20
-33.240391284357059
30
7.9398303903799317e-10
10
40.98664354890451
20
-36.099579389066214
30
7.9398317781587124e-10
10
39.7049159361584
20
-38.614516089255993
30
7.9398324720481028e-10
10
38.249116599209913
20
-40.420909952979059
30
7.9398321251034076e-10
10
37.757662711564734
20
-41.030718780620042
30
7.9398324720481028e-10
10
37.244960441302879
20
-41.564277043446765
30
7.9398321251034076e-10
10
36.703664076104459
20
-42.024070847690723
30
7.9398321251034076e-10
0
LWPOLYLINE
5
101
100
AcDbEntity
8
0
100
AcDbPolyline
90
4
70
1
43
0.0
10
11.735018835771404
20
-23.071478556514087
10
11.735018835771388
20
-17.071478556514094
42
-0.99999999999999989
10
19.735018835771395
20
-17.071478556514045
10
19.735018835771406
20
-23.071478556514059
0
ENDSEC
0
SECTION
2
OBJECTS
0
DICTIONARY
5
C
100
AcDbDictionary
3
ACAD_GROUP
350
D
3
ACAD_MLINESTYLE
350
17
0
DICTIONARY
5
D
100
AcDbDictionary
0
DICTIONARY
5
1A
330
C
100
AcDbDictionary
0
DICTIONARY
5
17
100
AcDbDictionary
0
ENDSEC
0
EOF
